<?xml version="1.0" standalone="no"?>
<!DOCTYPE svg PUBLIC "-//W3C//DTD SVG 20010904//EN"
 "http://www.w3.org/TR/2001/REC-SVG-20010904/DTD/svg10.dtd">
<svg version="1.0" xmlns="http://www.w3.org/2000/svg"
 width="375.000000pt" height="98.000000pt" viewBox="0 0 375.000000 98.000000"
 preserveAspectRatio="xMidYMid meet">

<g transform="translate(0.000000,98.000000) scale(0.100000,-0.100000)"
fill="#fff" stroke="none">
<path d="M583 871 c-232 -26 -425 -50 -429 -53 -5 -6 112 -593 122 -610 3 -4
39 -8 81 -8 73 0 75 -1 69 -22 -23 -90 -29 -129 -19 -139 8 -8 60 27 182 120
l172 131 119 0 c65 0 121 4 125 9 9 16 86 601 80 611 -9 14 -40 12 -502 -39z"/>
<path d="M1280 475 l0 -265 150 0 150 0 0 25 0 24 -117 3 -118 3 -3 238 -2
237 -30 0 -30 0 0 -265z"/>
<path d="M1660 474 l0 -265 33 3 32 3 3 240 c1 132 0 250 -3 263 -4 17 -13 22
-35 22 l-30 0 0 -266z"/>
<path d="M1820 475 l0 -265 30 0 30 0 0 200 c0 110 3 200 8 200 4 0 76 -90
161 -200 123 -159 159 -200 178 -200 l23 0 0 265 0 265 -30 0 -30 0 -2 -205
-3 -206 -158 206 c-129 167 -163 205 -183 205 l-24 0 0 -265z"/>
<path d="M2350 475 l0 -265 30 0 30 0 0 76 c0 73 2 79 36 120 19 24 39 44 43
44 5 0 53 -54 107 -120 90 -109 102 -120 132 -120 19 0 32 4 30 10 -1 5 -51
68 -110 139 -60 71 -108 135 -108 141 0 7 45 61 100 120 55 59 100 110 100
114 0 3 -15 6 -34 6 -30 0 -45 -12 -156 -135 -68 -74 -127 -135 -132 -135 -4
0 -8 61 -8 135 l0 135 -30 0 -30 0 0 -265z"/>
<path d="M2840 475 l0 -265 160 0 160 0 0 25 0 24 -127 3 -128 3 0 90 0 90 98
3 c95 3 98 3 95 25 -3 21 -9 22 -98 27 l-95 5 -3 88 -3 87 126 0 125 0 0 30 0
30 -155 0 -155 0 0 -265z"/>
<path d="M3240 475 l0 -265 30 0 29 0 3 93 3 92 61 3 62 3 67 -96 c60 -83 72
-95 98 -95 36 0 35 6 -38 109 -30 43 -55 83 -55 89 0 6 8 13 18 16 10 4 31 20
47 36 22 23 29 41 33 84 6 69 -1 96 -34 136 -41 48 -82 60 -210 60 l-114 0 0
-265z m266 171 c38 -38 45 -86 19 -135 -20 -39 -59 -52 -146 -49 l-74 3 -3
108 -3 107 87 0 c85 0 87 -1 120 -34z"/>
</g>
</svg>
