<?xml version="1.0"?>
<svg width="380.446" height="380.446" xmlns="http://www.w3.org/2000/svg" xmlns:svg="http://www.w3.org/2000/svg" version="1.1" xml:space="preserve">
 <g class="layer">
  <title>Layer 1</title>
  <g id="svg_1" transform="rotate(-28.469 180.225 211.725)">
   <path d="m223.61,50.59c33.97,0 65.72,8.46 92.81,23.16c-52.01,28.23 -86.77,79.46 -86.77,137.98s34.77,109.75 86.77,137.98c-27.08,14.71 -58.84,23.17 -92.81,23.17c-99.18,0 -179.57,-72.15 -179.57,-161.14s80.4,-161.14 179.57,-161.14z" fill="#F7CF52" id="svg_2"/>
   <path d="m223.62,50.59c5.48,0 10.89,0.22 16.24,0.65c-91.52,7.4 -163.25,76.43 -163.25,160.48c0,84.07 71.76,153.1 163.31,160.48c-5.36,0.43 -10.8,0.65 -16.29,0.65c-99.18,0 -179.58,-72.14 -179.58,-161.14s80.4,-161.14 179.58,-161.14z" fill="#E2BC50" id="svg_3"/>
  </g>
 </g>
</svg>