<?xml version="1.0" ?><svg id="Health_Insurance" style="enable-background:new 0 0 32 32;" version="1.1" viewBox="0 0 32 32" xml:space="preserve" xmlns="http://www.w3.org/2000/svg" xmlns:xlink="http://www.w3.org/1999/xlink"><style type="text/css">
	.st0{fill:#16F293;}
	.st1{fill:#FFFFFF;}
</style><g><path class="st0" d="M28.997,5.814c-5.576-0.242-9.87-2.133-12.489-3.676c-0.313-0.185-0.702-0.184-1.016,0   c-3.698,2.179-8.15,3.485-12.536,3.678C2.421,5.84,2,6.308,2,6.843c0,9.462,5.044,18.067,13.494,23.02   C15.65,29.954,15.825,30,16,30s0.35-0.046,0.506-0.138C24.955,24.91,30,16.305,30,6.843V6.815C30,6.28,29.532,5.837,28.997,5.814z    M19.5,17H17v2.501c0,0.553-0.448,1-1,1s-1-0.447-1-1V17h-2.5c-0.552,0-1-0.447-1-1s0.448-1,1-1H15v-2.5c0-0.552,0.448-1,1-1   s1,0.448,1,1V15h2.5c0.553,0,1,0.448,1,1S20.053,17,19.5,17z"/><path class="st1" d="M19.5,15H17v-2.5c0-0.552-0.448-1-1-1s-1,0.448-1,1V15h-2.5c-0.552,0-1,0.448-1,1s0.448,1,1,1H15v2.501   c0,0.553,0.448,1,1,1s1-0.447,1-1V17h2.5c0.553,0,1-0.447,1-1S20.053,15,19.5,15z"/></g></svg>