<?xml version="1.0" standalone="no"?>
<!DOCTYPE svg PUBLIC "-//W3C//DTD SVG 20010904//EN"
 "http://www.w3.org/TR/2001/REC-SVG-20010904/DTD/svg10.dtd">
<svg version="1.0" xmlns="http://www.w3.org/2000/svg"
 width="512.000000pt" height="512.000000pt" viewBox="0 0 512.000000 512.000000"
 preserveAspectRatio="xMidYMid meet">

<g transform="translate(0.000000,512.000000) scale(0.100000,-0.100000)"
fill="#fff" stroke="none">
<path d="M2426 3984 c-70 -17 -145 -58 -210 -115 l-47 -41 -82 27 c-99 33
-204 42 -288 26 -78 -16 -120 -35 -191 -88 -112 -85 -161 -176 -171 -323 -4
-57 -15 -98 -48 -175 -59 -141 -79 -221 -79 -318 0 -94 14 -157 65 -288 41
-108 43 -148 14 -286 -30 -139 -37 -196 -38 -295 -1 -114 20 -180 95 -293 32
-49 62 -94 66 -100 5 -8 -13 -9 -58 -4 -133 14 -202 -30 -250 -156 -27 -71
-25 -207 4 -295 50 -149 184 -252 327 -253 75 -1 113 13 152 55 26 28 140 216
195 321 22 42 45 77 52 78 6 0 121 2 256 3 210 2 258 5 337 24 140 32 270 78
347 122 89 52 129 52 279 4 135 -44 246 -90 392 -165 130 -67 183 -83 242 -74
99 15 171 128 269 423 58 174 56 254 -7 307 -22 18 -42 25 -74 25 -114 0 -187
-75 -270 -276 l-29 -71 -137 48 c-75 26 -179 57 -231 68 -51 12 -100 24 -110
27 -19 6 -18 16 11 178 17 89 24 111 43 125 94 65 142 147 142 241 -1 90 -20
139 -75 193 -45 43 -81 64 -211 120 -37 16 -38 18 -38 70 0 29 10 80 21 112
19 53 22 86 25 290 5 313 5 304 -12 339 -9 17 -50 65 -92 107 -42 42 -104 107
-137 144 -72 82 -110 108 -194 135 -74 23 -168 25 -255 4z m267 -55 c63 -25
127 -72 157 -117 27 -38 24 -43 -21 -43 -106 -1 -237 -85 -283 -184 -34 -71
-34 -126 2 -195 56 -110 170 -171 322 -173 85 -1 128 12 171 50 15 12 17 11
22 -8 9 -35 -1 -44 -44 -42 -26 0 -59 -8 -88 -22 -45 -22 -125 -52 -166 -61
-81 -19 -177 -35 -233 -40 -37 -3 -73 -7 -81 -10 -19 -6 -297 -5 -346 1 -22 3
-78 13 -125 21 -108 20 -192 13 -226 -18 -70 -66 -49 -217 38 -275 31 -21 174
-53 235 -53 22 0 21 -2 -17 -37 -22 -20 -40 -42 -40 -47 0 -5 -6 -17 -13 -25
-35 -42 -55 -166 -45 -275 4 -44 7 -81 5 -82 -2 -2 -23 8 -47 21 -25 13 -52
27 -60 31 -8 4 -19 13 -23 21 -4 7 -16 13 -27 13 -10 0 -20 4 -22 10 -1 5 -15
11 -31 12 -26 2 -27 4 -20 38 5 19 8 80 8 136 l0 100 -51 105 c-75 150 -79
164 -78 259 0 71 5 97 31 160 38 94 50 153 62 300 6 82 15 131 31 168 13 29
19 56 16 60 -21 20 -76 -116 -76 -186 0 -96 -22 -220 -56 -320 -60 -175 -51
-267 44 -457 40 -80 45 -99 50 -176 6 -118 -9 -177 -53 -206 -68 -45 -89 -156
-47 -246 12 -26 22 -56 22 -67 0 -50 35 -170 66 -230 20 -37 30 -66 24 -68 -6
-2 -25 -17 -42 -33 -31 -27 -33 -28 -51 -11 -35 31 -115 137 -140 185 -38 70
-50 147 -43 257 3 52 11 113 17 135 56 212 57 282 6 401 -93 218 -90 346 13
579 38 84 41 96 49 190 11 107 33 161 94 226 77 82 211 139 317 134 64 -3 140
-17 146 -26 3 -5 12 -9 20 -9 8 0 34 -9 56 -20 57 -27 72 -25 98 13 48 70 166
137 269 155 67 11 146 4 204 -19z m260 -249 c42 -25 44 -36 3 -20 -105 40
-216 -40 -216 -156 0 -64 13 -100 48 -138 66 -70 170 -76 240 -13 32 30 27 6
-5 -26 -72 -68 -191 -76 -312 -19 -71 33 -131 113 -131 174 0 74 61 165 130
195 14 6 36 16 50 22 40 18 149 7 193 -19z m-3 -125 c0 -18 -5 -25 -19 -25
-11 0 -23 5 -26 10 -11 18 3 40 25 40 15 0 20 -7 20 -25z m-70 -70 c16 -20 5
-45 -20 -45 -14 0 -20 7 -20 23 0 38 18 48 40 22z m108 -39 c-2 -13 -10 -21
-23 -21 -23 0 -33 34 -14 45 20 13 40 -1 37 -24z m53 -302 c12 -14 9 -20 -16
-41 -33 -26 -128 -73 -149 -73 -7 0 -16 -3 -20 -7 -3 -4 -12 -8 -19 -9 -7 -2
-58 -12 -113 -23 -56 -11 -130 -23 -165 -26 -35 -3 -79 -8 -97 -11 -43 -7
-348 -6 -439 1 -39 3 -93 11 -120 18 -60 16 -73 12 -73 -18 0 -19 8 -25 45
-34 114 -29 437 -39 635 -20 207 20 394 65 498 121 59 32 62 32 62 17 0 -24
-57 -89 -96 -108 -86 -44 -297 -92 -475 -109 -87 -9 -102 -8 -197 7 -53 9
-114 3 -154 -14 -20 -8 -216 10 -271 26 -21 5 -52 23 -69 38 -26 23 -32 37
-35 82 -3 36 0 60 9 72 24 32 89 37 196 15 74 -16 140 -21 277 -22 202 -1 299
6 430 34 152 32 184 41 243 71 65 33 94 36 113 13z m-31 -271 c1 -5 2 -29 4
-55 3 -41 2 -45 -11 -33 -8 8 -21 15 -29 15 -8 0 -14 4 -14 9 0 5 -15 13 -32
17 l-33 7 35 15 c19 8 42 18 50 23 19 10 30 11 30 2z m-77 -116 c90 -53 144
-141 154 -249 4 -43 2 -48 -16 -48 -16 0 -21 6 -21 25 0 71 -52 125 -126 132
-36 3 -50 -2 -91 -33 -26 -20 -52 -41 -58 -48 -5 -6 -23 -20 -39 -30 -31 -20
-54 -18 -151 9 -33 9 -78 19 -101 22 -100 12 -176 -106 -123 -193 l19 -31 -32
-8 c-18 -4 -37 -9 -43 -11 -69 -21 -179 -31 -285 -25 -37 2 -52 51 -52 170 -1
84 3 105 24 152 30 65 88 128 149 160 68 36 168 32 253 -10 37 -18 80 -49 99
-71 19 -22 40 -40 49 -40 8 0 27 17 43 38 29 39 88 87 135 109 43 22 161 10
213 -20z m-358 -13 c-34 -35 -35 -35 -59 -17 -34 25 -32 31 12 38 20 4 44 8
52 10 8 1 18 3 22 4 4 0 -8 -15 -27 -35z m636 -63 c69 -38 115 -84 123 -122
11 -57 6 -145 -10 -177 -19 -38 -66 -88 -103 -106 -54 -29 -149 -39 -284 -32
-196 10 -226 14 -397 56 -125 30 -170 89 -119 154 24 31 47 32 133 10 33 -9
70 -18 81 -21 193 -49 443 -56 526 -14 51 26 85 69 94 122 5 25 2 39 -8 47
-23 20 -47 4 -47 -32 -1 -24 -7 -14 -26 44 -14 41 -31 81 -36 88 -18 22 18 14
73 -17z m-247 -142 c35 -27 37 -78 4 -80 -52 -3 -154 3 -166 10 -15 9 91 91
118 91 9 0 29 -9 44 -21z m-1209 -227 c85 -56 150 -83 234 -96 125 -20 236 -9
384 35 51 16 75 19 95 11 58 -20 100 -31 162 -42 94 -17 97 -18 74 -34 -58
-40 -178 -94 -289 -131 -112 -38 -325 -57 -432 -40 -128 21 -165 32 -269 82
-46 22 -76 44 -88 64 -23 39 -24 117 -2 151 29 44 63 44 131 0z m1415 -126 c0
-36 -32 -187 -49 -234 -23 -62 -63 -132 -94 -165 -83 -88 -239 -174 -392 -216
-75 -20 -130 -34 -145 -36 -8 -1 -51 -8 -95 -15 -84 -13 -367 -17 -404 -5 -20
6 -21 11 -15 65 9 78 -1 123 -34 159 -41 44 -93 62 -168 56 l-64 -5 -25 50
c-26 52 -72 216 -63 226 3 2 32 -8 64 -25 106 -53 190 -75 334 -88 l65 -5 77
-78 c96 -97 181 -159 293 -211 89 -42 129 -45 156 -13 6 8 15 14 20 14 4 0 35
19 70 43 34 23 71 48 83 56 24 17 150 142 184 184 35 43 87 127 106 172 28 65
32 69 57 76 36 10 39 10 39 -5z m-153 -6 c21 0 20 -2 -13 -66 -43 -83 -105
-163 -180 -234 -68 -64 -178 -150 -192 -150 -5 0 -15 -7 -22 -15 -7 -8 -27
-17 -45 -21 -32 -6 -67 7 -155 57 -39 22 -182 134 -213 166 l-28 30 108 18
c59 9 142 28 183 42 90 29 283 123 325 158 28 23 36 24 120 20 50 -2 100 -4
112 -5z m1013 -116 c30 -30 14 -176 -30 -279 -4 -11 -23 -58 -41 -105 -64
-167 -109 -236 -172 -259 -29 -11 -95 6 -163 42 -69 37 -281 137 -290 137 -3
0 -20 7 -37 15 -58 26 -185 65 -215 65 -49 0 -57 22 -22 59 17 17 44 54 61 82
l32 51 51 -5 c116 -11 302 -65 408 -118 92 -47 101 -43 132 54 15 45 44 112
64 149 62 115 166 167 222 112z m-2166 -339 c43 -20 58 -49 58 -108 -1 -51
-32 -124 -103 -242 -16 -27 -37 -63 -45 -80 -30 -62 -60 -105 -81 -120 -13 -9
-23 -23 -23 -32 0 -9 -16 -31 -36 -49 -32 -31 -41 -34 -95 -34 -69 0 -114 16
-171 62 -143 113 -182 359 -78 491 108 137 299 17 381 -238 18 -54 26 -64 49
-58 25 7 25 26 1 94 -24 69 -53 125 -84 167 -23 31 -24 35 -10 62 16 32 77 85
108 93 41 10 98 7 129 -8z"/>
<path d="M2050 3680 c-87 -30 -139 -61 -208 -124 -85 -79 -107 -150 -71 -232
61 -143 245 -223 443 -192 151 23 242 126 253 285 5 60 2 80 -15 117 -27 57
-84 111 -148 142 -65 31 -172 33 -254 4z m249 -67 c77 -45 112 -102 112 -185
1 -97 -62 -191 -149 -225 -73 -28 -220 -24 -293 9 -115 52 -174 137 -149 215
22 70 114 146 230 191 70 27 84 29 149 25 37 -2 70 -12 100 -30z"/>
<path d="M2035 3602 c-77 -37 -115 -96 -115 -180 0 -93 73 -174 169 -187 42
-6 60 -3 105 18 139 64 155 243 29 331 -55 38 -130 45 -188 18z m115 -87 c17
-20 5 -45 -20 -45 -11 0 -23 7 -26 15 -6 15 11 45 26 45 4 0 13 -7 20 -15z
m-86 -90 c20 -21 9 -45 -20 -45 -29 0 -41 24 -24 45 16 19 25 19 44 0z m126
-31 c11 -12 10 -18 -3 -31 -8 -9 -23 -13 -31 -10 -19 8 -21 43 -3 50 20 9 24
8 37 -9z"/>
</g>
</svg>
